<svg width="275" height="64" viewBox="0 0 275 64" fill="none" xmlns="http://www.w3.org/2000/svg">
<path fill-rule="evenodd" clip-rule="evenodd" d="M15.1562 63.5625C10.6797 63.5625 7.07031 62.168 4.32812 59.3789C1.60938 56.5898 0.25 52.6875 0.25 47.6719V19.125C0.25 13.125 1.43359 8.53125 3.80078 5.34375C6.19141 2.15625 10.0703 0.5625 15.4375 0.5625C18.3672 0.5625 20.9688 1.10156 23.2422 2.17969C25.5391 3.25781 27.3438 4.875 28.6562 7.03125C29.9688 9.16406 30.625 11.8594 30.625 15.1172V25.8047H18.3203V16.6641C18.3203 14.8125 18.0859 13.5703 17.6172 12.9375C17.1484 12.2812 16.4219 11.9531 15.4375 11.9531C14.2891 11.9531 13.5156 12.375 13.1172 13.2188C12.7188 14.0391 12.5195 15.1406 12.5195 16.5234V47.4961C12.5195 49.207 12.7656 50.4141 13.2578 51.1172C13.7734 51.8203 14.5 52.1719 15.4375 52.1719C16.4922 52.1719 17.2305 51.7383 17.6523 50.8711C18.0977 50.0039 18.3203 48.8789 18.3203 47.4961V36.3516H30.7656V48.0586C30.7656 53.4961 29.3945 57.4453 26.6523 59.9062C23.9102 62.3438 20.0781 63.5625 15.1562 63.5625ZM48.2397 63.5625C43.2944 63.5625 39.5092 62.0742 36.8842 59.0977C34.2827 56.0977 32.9819 51.7734 32.9819 46.125V16.7344C32.9819 11.4375 34.2709 7.41797 36.8491 4.67578C39.4506 1.93359 43.2475 0.5625 48.2397 0.5625C53.2319 0.5625 57.017 1.93359 59.5952 4.67578C62.1967 7.41797 63.4975 11.4375 63.4975 16.7344V46.125C63.4975 51.7734 62.185 56.0977 59.56 59.0977C56.9584 62.0742 53.185 63.5625 48.2397 63.5625ZM48.3452 52.1719C50.2202 52.1719 51.1577 50.3555 51.1577 46.7227V16.5234C51.1577 13.4766 50.2436 11.9531 48.4155 11.9531C46.353 11.9531 45.3217 13.5117 45.3217 16.6289V46.793C45.3217 48.7148 45.5561 50.0977 46.0248 50.9414C46.4936 51.7617 47.267 52.1719 48.3452 52.1719ZM67.0497 1.125V63H83.6434C88.7763 63 92.3622 61.4062 94.4013 58.2188C96.4638 55.0312 97.495 50.5078 97.495 44.6484V15.6797C97.495 10.9219 96.37 7.3125 94.12 4.85156C91.87 2.36719 88.5184 1.125 84.0653 1.125H67.0497ZM81.6395 52.0664H79.495V11.9531H80.8661C82.5536 11.9531 83.6669 12.2578 84.2059 12.8672C84.7684 13.4531 85.0497 14.7773 85.0497 16.8398V48.7617C85.0497 50.9648 83.913 52.0664 81.6395 52.0664ZM101.118 63V1.125H125.868V13.0781H113.703V25.1367H125.375V36.7734H113.703V50.9414H120.775C119.076 52.4084 118 54.5786 118 57C118 59.3894 119.048 61.5341 120.708 63H101.118ZM131.292 63H139.685L140.459 53.0156H147.912L148.791 63H160.498L154.627 1.125H133.638L128.96 49.5653C131.913 50.7419 134 53.6272 134 57C134 59.3894 132.952 61.5341 131.292 63ZM146.963 43.1367H141.338L143.693 11.6719H144.256L146.963 43.1367ZM177.163 63.5625C172.007 63.5625 168.21 62.1211 165.773 59.2383C163.335 56.332 162.116 52.0664 162.116 46.4414V1.125H174.14V45.9492C174.14 46.9805 174.198 47.9766 174.316 48.9375C174.433 49.875 174.702 50.6484 175.124 51.2578C175.546 51.8672 176.226 52.1719 177.163 52.1719C178.124 52.1719 178.816 51.8789 179.238 51.293C179.659 50.6836 179.917 49.8984 180.011 48.9375C180.128 47.9766 180.187 46.9805 180.187 45.9492V1.125H192.21V46.4414C192.21 52.0664 190.991 56.332 188.554 59.2383C186.116 62.1211 182.32 63.5625 177.163 63.5625ZM195.516 1.125V63H212.11C217.243 63 220.829 61.4062 222.868 58.2188C224.93 55.0312 225.962 50.5078 225.962 44.6484V15.6797C225.962 10.9219 224.837 7.3125 222.587 4.85156C220.337 2.36719 216.985 1.125 212.532 1.125H195.516ZM210.106 52.0664H207.962V11.9531H209.333C211.02 11.9531 212.133 12.2578 212.673 12.8672C213.235 13.4531 213.516 14.7773 213.516 16.8398V48.7617C213.516 50.9648 212.38 52.0664 210.106 52.0664ZM229.022 63V1.125H240.975V63H229.022ZM247.867 59.0977C250.492 62.0742 254.277 63.5625 259.222 63.5625C264.167 63.5625 267.941 62.0742 270.542 59.0977C273.167 56.0977 274.48 51.7734 274.48 46.125V16.7344C274.48 11.4375 273.179 7.41797 270.578 4.67578C268 1.93359 264.214 0.5625 259.222 0.5625C254.23 0.5625 250.433 1.93359 247.832 4.67578C245.253 7.41797 243.964 11.4375 243.964 16.7344V46.125C243.964 51.7734 245.265 56.0977 247.867 59.0977ZM262.14 46.7227C262.14 50.3555 261.203 52.1719 259.328 52.1719C258.25 52.1719 257.476 51.7617 257.007 50.9414C256.539 50.0977 256.304 48.7148 256.304 46.793V16.6289C256.304 13.5117 257.335 11.9531 259.398 11.9531C261.226 11.9531 262.14 13.4766 262.14 16.5234V46.7227Z" fill="#F4F4F5"/>
<circle cx="126" cy="57" r="6" fill="#F4F4F5"/>
</svg>
