<svg width="275" height="63" viewBox="0 0 275 63" fill="none" xmlns="http://www.w3.org/2000/svg">
<path fill-rule="evenodd" clip-rule="evenodd" d="M14.9062 63C10.4297 63 6.82031 61.6055 4.07812 58.8164C1.35938 56.0273 0 52.125 0 47.1094V18.5625C0 12.5625 1.18359 7.96875 3.55078 4.78125C5.94141 1.59375 9.82031 0 15.1875 0C18.1172 0 20.7188 0.539062 22.9922 1.61719C25.2891 2.69531 27.0938 4.3125 28.4062 6.46875C29.7188 8.60156 30.375 11.2969 30.375 14.5547V25.2422H18.0703V16.1016C18.0703 14.25 17.8359 13.0078 17.3672 12.375C16.8984 11.7188 16.1719 11.3906 15.1875 11.3906C14.0391 11.3906 13.2656 11.8125 12.8672 12.6562C12.4688 13.4766 12.2695 14.5781 12.2695 15.9609V46.9336C12.2695 48.6445 12.5156 49.8516 13.0078 50.5547C13.5234 51.2578 14.25 51.6094 15.1875 51.6094C16.2422 51.6094 16.9805 51.1758 17.4023 50.3086C17.8477 49.4414 18.0703 48.3164 18.0703 46.9336V35.7891H30.5156V47.4961C30.5156 52.9336 29.1445 56.8828 26.4023 59.3438C23.6602 61.7812 19.8281 63 14.9062 63ZM47.9897 63C43.0444 63 39.2592 61.5117 36.6342 58.5352C34.0327 55.5352 32.7319 51.2109 32.7319 45.5625V16.1719C32.7319 10.875 34.0209 6.85547 36.5991 4.11328C39.2006 1.37109 42.9975 0 47.9897 0C52.9819 0 56.767 1.37109 59.3452 4.11328C61.9467 6.85547 63.2475 10.875 63.2475 16.1719V45.5625C63.2475 51.2109 61.935 55.5352 59.31 58.5352C56.7084 61.5117 52.935 63 47.9897 63ZM48.0952 51.6094C49.9702 51.6094 50.9077 49.793 50.9077 46.1602V15.9609C50.9077 12.9141 49.9936 11.3906 48.1655 11.3906C46.103 11.3906 45.0717 12.9492 45.0717 16.0664V46.2305C45.0717 48.1523 45.3061 49.5352 45.7748 50.3789C46.2436 51.1992 47.017 51.6094 48.0952 51.6094ZM66.7997 0.5625V62.4375H83.3934C88.5263 62.4375 92.1122 60.8438 94.1513 57.6562C96.2138 54.4688 97.245 49.9453 97.245 44.0859V15.1172C97.245 10.3594 96.12 6.75 93.87 4.28906C91.62 1.80469 88.2684 0.5625 83.8153 0.5625H66.7997ZM81.3895 51.5039H79.245V11.3906H80.6161C82.3036 11.3906 83.4169 11.6953 83.9559 12.3047C84.5184 12.8906 84.7997 14.2148 84.7997 16.2773V48.1992C84.7997 50.4023 83.663 51.5039 81.3895 51.5039ZM100.868 62.4375V0.5625H125.618V12.5156H113.453V24.5742H125.125V36.2109H113.453V50.3789H120.525C118.826 51.8459 117.75 54.0161 117.75 56.4375C117.75 58.8269 118.798 60.9716 120.458 62.4375H100.868ZM131.042 62.4375H139.435L140.209 52.4531H147.662L148.541 62.4375H160.248L154.377 0.5625H133.388L128.71 49.0028C131.663 50.1794 133.75 53.0647 133.75 56.4375C133.75 58.8269 132.702 60.9716 131.042 62.4375ZM146.713 42.5742H141.088L143.443 11.1094H144.006L146.713 42.5742ZM176.913 63C171.757 63 167.96 61.5586 165.523 58.6758C163.085 55.7695 161.866 51.5039 161.866 45.8789V0.5625H173.89V45.3867C173.89 46.418 173.948 47.4141 174.066 48.375C174.183 49.3125 174.452 50.0859 174.874 50.6953C175.296 51.3047 175.976 51.6094 176.913 51.6094C177.874 51.6094 178.566 51.3164 178.988 50.7305C179.409 50.1211 179.667 49.3359 179.761 48.375C179.878 47.4141 179.937 46.418 179.937 45.3867V0.5625H191.96V45.8789C191.96 51.5039 190.741 55.7695 188.304 58.6758C185.866 61.5586 182.07 63 176.913 63ZM195.266 0.5625V62.4375H211.86C216.993 62.4375 220.579 60.8438 222.618 57.6562C224.68 54.4688 225.712 49.9453 225.712 44.0859V15.1172C225.712 10.3594 224.587 6.75 222.337 4.28906C220.087 1.80469 216.735 0.5625 212.282 0.5625H195.266ZM209.856 51.5039H207.712V11.3906H209.083C210.77 11.3906 211.883 11.6953 212.423 12.3047C212.985 12.8906 213.266 14.2148 213.266 16.2773V48.1992C213.266 50.4023 212.13 51.5039 209.856 51.5039ZM228.772 62.4375V0.5625H240.725V62.4375H228.772ZM247.617 58.5352C250.242 61.5117 254.027 63 258.972 63C263.917 63 267.691 61.5117 270.292 58.5352C272.917 55.5352 274.23 51.2109 274.23 45.5625V16.1719C274.23 10.875 272.929 6.85547 270.328 4.11328C267.75 1.37109 263.964 0 258.972 0C253.98 0 250.183 1.37109 247.582 4.11328C245.003 6.85547 243.714 10.875 243.714 16.1719V45.5625C243.714 51.2109 245.015 55.5352 247.617 58.5352ZM261.89 46.1602C261.89 49.793 260.953 51.6094 259.078 51.6094C258 51.6094 257.226 51.1992 256.757 50.3789C256.289 49.5352 256.054 48.1523 256.054 46.2305V16.0664C256.054 12.9492 257.085 11.3906 259.148 11.3906C260.976 11.3906 261.89 12.9141 261.89 15.9609V46.1602Z" fill="#27272A"/>
<circle cx="125.75" cy="56.4375" r="6" fill="#27272A"/>
</svg>
