<svg width="275" height="63" viewBox="0 0 275 63" fill="none" xmlns="http://www.w3.org/2000/svg">
<path fill-rule="evenodd" clip-rule="evenodd" d="M4.07812 58.8164C6.82031 61.6055 10.4297 63 14.9062 63C19.8281 63 23.6602 61.7812 26.4023 59.3438C29.1445 56.8828 30.5156 52.9336 30.5156 47.4961V35.7891H18.0703V46.9336C18.0703 48.3164 17.8477 49.4414 17.4023 50.3086C16.9805 51.1758 16.2422 51.6094 15.1875 51.6094C14.25 51.6094 13.5234 51.2578 13.0078 50.5547C12.5156 49.8516 12.2695 48.6445 12.2695 46.9336V15.9609C12.2695 14.5781 12.4688 13.4766 12.8672 12.6562C13.2656 11.8125 14.0391 11.3906 15.1875 11.3906C16.1719 11.3906 16.8984 11.7188 17.3672 12.375C17.8359 13.0078 18.0703 14.25 18.0703 16.1016V25.2422H30.375V14.5547C30.375 11.2969 29.7188 8.60156 28.4062 6.46875C27.0938 4.3125 25.2891 2.69531 22.9922 1.61719C20.7188 0.539062 18.1172 0 15.1875 0C9.82031 0 5.94141 1.59375 3.55078 4.78125C1.18359 7.96875 0 12.5625 0 18.5625V47.1094C0 52.125 1.35938 56.0273 4.07812 58.8164ZM36.6343 58.5352C39.2593 61.5117 43.0444 63 47.9897 63C52.9351 63 56.7085 61.5117 59.3101 58.5352C61.9351 55.5352 63.2476 51.2109 63.2476 45.5625V16.1719C63.2476 10.875 61.9468 6.85547 59.3452 4.11328C56.7671 1.37109 52.9819 0 47.9897 0C42.9976 0 39.2007 1.37109 36.5991 4.11328C34.021 6.85547 32.7319 10.875 32.7319 16.1719V45.5625C32.7319 51.2109 34.0327 55.5352 36.6343 58.5352ZM50.9077 46.1602C50.9077 49.793 49.9702 51.6094 48.0952 51.6094C47.0171 51.6094 46.2437 51.1992 45.7749 50.3789C45.3062 49.5352 45.0718 48.1523 45.0718 46.2305V16.0664C45.0718 12.9492 46.103 11.3906 48.1655 11.3906C49.9937 11.3906 50.9077 12.9141 50.9077 15.9609V46.1602ZM66.7997 62.4375V0.5625H83.8153C88.2684 0.5625 91.62 1.80469 93.87 4.28906C96.12 6.75 97.245 10.3594 97.245 15.1172V44.0859C97.245 49.9453 96.2137 54.4688 94.1512 57.6562C92.1122 60.8438 88.5262 62.4375 83.3934 62.4375H66.7997ZM79.245 51.5039H81.3895C83.663 51.5039 84.7997 50.4023 84.7997 48.1992V16.2773C84.7997 14.2148 84.5184 12.8906 83.9559 12.3047C83.4169 11.6953 82.3036 11.3906 80.6161 11.3906H79.245V51.5039ZM100.868 0.5625V62.4375H120.458C118.797 60.9717 117.75 58.8269 117.75 56.4375C117.75 54.0161 118.826 51.8459 120.526 50.3789H113.453V36.2109H125.125V24.5742H113.453V12.5156H125.618V0.5625H100.868ZM139.435 62.4375H131.042C132.703 60.9717 133.75 58.8269 133.75 56.4375C133.75 53.0647 131.663 50.1794 128.71 49.0027L133.388 0.5625H154.377L160.248 62.4375H148.541L147.662 52.4531H140.209L139.435 62.4375ZM141.088 42.5742H146.713L144.006 11.1094H143.443L141.088 42.5742ZM165.523 58.6758C167.96 61.5586 171.757 63 176.913 63C182.07 63 185.866 61.5586 188.304 58.6758C190.741 55.7695 191.96 51.5039 191.96 45.8789V0.5625H179.937V45.3867C179.937 46.418 179.878 47.4141 179.761 48.375C179.667 49.3359 179.409 50.1211 178.988 50.7305C178.566 51.3164 177.874 51.6094 176.913 51.6094C175.976 51.6094 175.296 51.3047 174.874 50.6953C174.452 50.0859 174.183 49.3125 174.066 48.375C173.948 47.4141 173.89 46.418 173.89 45.3867V0.5625H161.866V45.8789C161.866 51.5039 163.085 55.7695 165.523 58.6758ZM195.266 62.4375V0.5625H212.282C216.735 0.5625 220.087 1.80469 222.337 4.28906C224.587 6.75 225.712 10.3594 225.712 15.1172V44.0859C225.712 49.9453 224.68 54.4688 222.618 57.6562C220.579 60.8438 216.993 62.4375 211.86 62.4375H195.266ZM207.712 51.5039H209.856C212.13 51.5039 213.266 50.4023 213.266 48.1992V16.2773C213.266 14.2148 212.985 12.8906 212.422 12.3047C211.883 11.6953 210.77 11.3906 209.083 11.3906H207.712V51.5039ZM228.772 0.5625V62.4375H240.725V0.5625H228.772ZM258.972 63C254.027 63 250.242 61.5117 247.617 58.5352C245.015 55.5352 243.714 51.2109 243.714 45.5625V16.1719C243.714 10.875 245.003 6.85547 247.582 4.11328C250.183 1.37109 253.98 0 258.972 0C263.964 0 267.75 1.37109 270.328 4.11328C272.929 6.85547 274.23 10.875 274.23 16.1719V45.5625C274.23 51.2109 272.917 55.5352 270.292 58.5352C267.691 61.5117 263.917 63 258.972 63ZM259.078 51.6094C260.953 51.6094 261.89 49.793 261.89 46.1602V15.9609C261.89 12.9141 260.976 11.3906 259.148 11.3906C257.085 11.3906 256.054 12.9492 256.054 16.0664V46.2305C256.054 48.1523 256.289 49.5352 256.757 50.3789C257.226 51.1992 258 51.6094 259.078 51.6094ZM125.75 62.4375C129.064 62.4375 131.75 59.7512 131.75 56.4375C131.75 53.1238 129.064 50.4375 125.75 50.4375C122.436 50.4375 119.75 53.1238 119.75 56.4375C119.75 59.7512 122.436 62.4375 125.75 62.4375Z" fill="#27272A"/>
</svg>
