<svg width="324" height="88" viewBox="0 0 324 88" fill="none" xmlns="http://www.w3.org/2000/svg">
<path fill-rule="evenodd" clip-rule="evenodd" d="M147.898 0L139.425 88H151.481L159.954 0H147.898ZM143.466 8.64282H115.277V79.3572H136.533L137.884 65.5759H129.661V49.384H139.471L140.776 36.0847H129.661V22.3035H142.127L143.466 8.64282ZM4.66071 75.2188C7.79462 78.4062 11.9196 80 17.0357 80C22.6607 80 27.0402 78.6072 30.1741 75.8215C33.308 73.009 34.875 68.4956 34.875 62.2812V48.9019H20.6518V61.6384C20.6518 63.2188 20.3973 64.5044 19.8884 65.4956C19.4062 66.4866 18.5625 66.9822 17.3571 66.9822C16.2857 66.9822 15.4554 66.5803 14.8661 65.7769C14.3036 64.9731 14.0223 63.5938 14.0223 61.6384V26.241C14.0223 24.6606 14.25 23.4019 14.7054 22.4644C15.1607 21.5 16.0446 21.0178 17.3571 21.0178C18.4821 21.0178 19.3125 21.3928 19.8482 22.1428C20.3839 22.866 20.6518 24.2856 20.6518 26.4019V36.8481H34.7143V24.634C34.7143 20.9106 33.9643 17.8303 32.4643 15.3928C30.9643 12.9285 28.9018 11.0803 26.2768 9.84814C23.6786 8.61597 20.7054 8 17.3571 8C11.2232 8 6.79016 9.82153 4.05804 13.4644C1.35266 17.1072 0 22.3572 0 29.2144V61.8394C0 67.5715 1.55359 72.0312 4.66071 75.2188ZM41.8677 74.8972C44.8677 78.2991 49.1935 80 54.8453 80C60.4971 80 64.8096 78.2991 67.7828 74.8972C70.7828 71.4688 72.2828 66.5269 72.2828 60.0715V26.4822C72.2828 20.4285 70.7963 15.8347 67.8231 12.7009C64.8766 9.56689 60.5507 8 54.8453 8C49.14 8 44.8007 9.56689 41.8275 12.7009C38.881 15.8347 37.4078 20.4285 37.4078 26.4822V60.0715C37.4078 66.5269 38.8945 71.4688 41.8677 74.8972ZM58.1802 60.7544C58.1802 64.9062 57.1088 66.9822 54.9659 66.9822C53.7338 66.9822 52.8498 66.5134 52.3141 65.5759C51.7784 64.6116 51.5106 63.0312 51.5106 60.8347V26.3616C51.5106 22.7991 52.6891 21.0178 55.0463 21.0178C57.1356 21.0178 58.1802 22.759 58.1802 26.241V60.7544ZM76.3425 79.3572V8.64282H95.7889C100.878 8.64282 104.709 10.0625 107.28 12.9019C109.851 15.7144 111.137 19.8394 111.137 25.2769V58.384C111.137 65.0803 109.959 70.25 107.601 73.8928C105.271 77.5356 101.173 79.3572 95.3068 79.3572H76.3425ZM90.5657 66.8616H93.0166C95.6149 66.8616 96.9139 65.6028 96.9139 63.0847V26.6028C96.9139 24.2456 96.5925 22.7322 95.9496 22.0625C95.3336 21.366 94.0613 21.0178 92.1327 21.0178H90.5657V66.8616ZM306.355 80C300.703 80 296.377 78.2991 293.377 74.8972C290.404 71.4688 288.917 66.5269 288.917 60.0715V26.4822C288.917 20.4285 290.39 15.8347 293.337 12.7009C296.31 9.56689 300.649 8 306.355 8C312.06 8 316.386 9.56689 319.332 12.7009C322.306 15.8347 323.792 20.4285 323.792 26.4822V60.0715C323.792 66.5269 322.292 71.4688 319.292 74.8972C316.319 78.2991 312.006 80 306.355 80ZM306.475 66.9822C308.618 66.9822 309.689 64.9062 309.689 60.7544V26.241C309.689 22.759 308.645 21.0178 306.556 21.0178C304.198 21.0178 303.02 22.7991 303.02 26.3616V60.8347C303.02 63.0312 303.288 64.6116 303.823 65.5759C304.359 66.5134 305.243 66.9822 306.475 66.9822ZM162.83 8.64282L156 79.3572H169.741L170.625 67.9465H179.143L180.147 79.3572H193.527L186.817 8.64282H162.83ZM178.058 56.6562H171.63L174.321 20.6965H174.964L178.058 56.6562ZM199.555 75.0581C202.341 78.3528 206.68 80 212.573 80C218.466 80 222.805 78.3528 225.591 75.0581C228.377 71.7366 229.769 66.8616 229.769 60.4331V8.64282H216.028V59.8706C216.028 61.0491 215.961 62.1875 215.828 63.2856C215.72 64.384 215.426 65.2812 214.944 65.9778C214.461 66.6472 213.671 66.9822 212.573 66.9822C211.502 66.9822 210.725 66.634 210.243 65.9375C209.76 65.241 209.453 64.3572 209.319 63.2856C209.185 62.1875 209.118 61.0491 209.118 59.8706V8.64282H195.377V60.4331C195.377 66.8616 196.769 71.7366 199.555 75.0581ZM233.548 79.3572V8.64282H252.994C258.084 8.64282 261.914 10.0625 264.485 12.9019C267.057 15.7144 268.343 19.8394 268.343 25.2769V58.384C268.343 65.0803 267.164 70.25 264.807 73.8928C262.476 77.5356 258.378 79.3572 252.512 79.3572H233.548ZM247.771 66.8616H250.222C252.82 66.8616 254.119 65.6028 254.119 63.0847V26.6028C254.119 24.2456 253.798 22.7322 253.155 22.0625C252.539 21.366 251.267 21.0178 249.338 21.0178H247.771V66.8616ZM271.84 8.64282V79.3572H285.5V8.64282H271.84Z" fill="#fafaf9"/>
</svg>
